<?xml version="1.0" standalone="no"?><!DOCTYPE svg PUBLIC "-//W3C//DTD SVG 1.1//EN" "http://www.w3.org/Graphics/SVG/1.1/DTD/svg11.dtd"><svg t="1704104791322" class="icon" viewBox="0 0 1024 1024" version="1.1" xmlns="http://www.w3.org/2000/svg" p-id="9461" xmlns:xlink="http://www.w3.org/1999/xlink" width="16" height="16"><path d="M463.593472 773.974016h-4.900864v3.887104h14.665728v-3.887104h-4.876288v-19.931136l-9.920512 2.084864v4.007936l5.031936-1.142784zM539.768832 769.4848c2.152448 0 3.739648-0.790528 4.780032-2.373632l0.086016 0.03072c-0.075776 4.921344-2.015232 7.378944-5.801984 7.378944-1.697792 0-3.178496-0.401408-4.431872-1.20832v4.06528c1.390592 0.587776 3.0208 0.892928 4.866048 0.892928 3.278848 0 5.7856-1.191936 7.530496-3.571712 1.734656-2.373632 2.617344-5.61152 2.617344-9.703424 0-3.446784-0.729088-6.131712-2.172928-8.052736-1.44384-1.929216-3.436544-2.891776-5.971968-2.891776-2.43712 0-4.411392 0.765952-5.933056 2.279424-1.507328 1.527808-2.269184 3.506176-2.269184 5.947392 0 2.074624 0.632832 3.794944 1.88416 5.156864 1.263616 1.370112 2.865152 2.050048 4.816896 2.050048z m-1.005568-10.524672a2.838528 2.838528 0 0 1 2.359296-1.161216c1.005568 0 1.804288 0.452608 2.41664 1.349632 0.591872 0.897024 0.899072 1.937408 0.899072 3.137536 0 1.005568-0.3072 1.841152-0.899072 2.510848a2.934784 2.934784 0 0 1-2.299904 1.01376c-1.046528 0-1.86368-0.350208-2.469888-1.050624-0.600064-0.70656-0.894976-1.685504-0.894976-2.924544 0-1.130496 0.29696-2.095104 0.888832-2.875392zM505.102336 777.86112h4.470784v-5.105664h2.844672v-3.506176h-2.844672v-14.802944h-4.886528l-9.906176 15.194112v3.115008h10.323968v5.105664z m-6.189056-8.61184l5.269504-8.09984c0.253952-0.395264 0.444416-0.759808 0.585728-1.08544a12.8 12.8 0 0 1 0.29696-0.745472h0.096256c-0.04096 0.843776-0.059392 1.59744-0.059392 2.2528v7.677952h-6.189056zM576.518144 773.974016h-4.896768v3.887104h14.659584v-3.887104h-4.866048v-19.931136l-9.930752 2.084864v4.007936l5.033984-1.142784z" fill="" p-id="9462"></path><path d="M842.719232 428.183552c-25.821184 14.667776-38.572032 16.697344-45.12768 18.235392-41.85088 9.803776-17.758208-11.012096-13.25056-13.90592 124.084224-79.745024 83.5072-144.453632 68.716544-164.753408-15.009792-20.59264-22.693888-32.190464-29.861888-47.26784-6.825984-14.352384-9.744384-20.25472-12.679168-17.65376-5.330944 4.73088 0.124928 30.691328 14.866432 60.223488 12.173312 24.379392 13.787136 40.267776 2.469888 46.04928-10.09664 5.154816-25.706496 4.642816-42.500096-7.56736-21.891072-14.90944-27.011072-65.50528-25.659392-93.650944 0.847872-17.344512-3.936256-18.628608-6.858752-10.825728-5.84704 15.59552-9.066496 42.805248-7.682048 68.83328 1.701888 31.762432 18.601984 54.417408 43.636736 79.269888 27.019264 28.215296 9.091072 54.030336-30.885888 68.907008-63.719424 23.703552-102.137856-3.862528-122.105856-34.172928-7.960576-12.087296-15.058944-13.25056-13.881344-2.152448 1.466368 13.776896 10.901504 30.519296 18.9952 48.1792 14.559232 31.75424-0.591872 53.149696-29.384704 64.724992-24.09472 9.66656-48.795648-6.064128-61.37856-20.338688-6.391808-7.227392-16.115712-1.1264 11.962368 43.720704 6.25664 9.992192 6.230016 14.548992 1.64864 19.765248-9.084928-7.870464-17.086464-11.50976-17.086464-11.50976 6.346752-11.712512-4.579328-24.516608-4.579328-24.516608s0.782336 5.511168-5.644288 10.272768c0.657408-13.570048-13.918208-22.546432-13.918208-22.546432s4.62848 16.883712-14.442496 23.195648c-6.397952 2.121728-10.829824 5.441536-13.088768 10.600448a80.400384 80.400384 0 0 0-14.405632 5.218304c-4.847616 1.7408-9.259008 4.360192-13.213696 7.626752-3.198976-4.593664-2.65216-9.179136 2.936832-18.106368 28.076032-44.847104 18.354176-50.950144 11.962368-43.720704-12.587008 14.27456-37.28384 30.0032-61.382656 20.338688-28.788736-11.575296-43.937792-32.970752-29.380608-64.724992 8.091648-17.659904 17.528832-34.402304 18.999296-48.1792 1.173504-11.098112-5.91872-9.9328-13.88544 2.152448-19.965952 30.3104-58.386432 57.874432-122.103808 34.172928-39.981056-14.87872-57.9072-40.69376-30.892032-68.907008 25.038848-24.85248 41.938944-47.509504 43.644928-79.269888 1.384448-26.028032-1.8432-53.235712-7.682048-68.83328-2.926592-7.800832-7.706624-6.516736-6.862848 10.825728 1.353728 28.145664-3.764224 78.741504-25.657344 93.650944-16.797696 12.210176-32.407552 12.722176-42.500096 7.56736-11.319296-5.781504-9.70752-21.669888 2.469888-46.04928 14.741504-29.534208 20.199424-55.492608 14.862336-60.223488-2.930688-2.603008-5.84704 3.299328-12.679168 17.65376-7.161856 15.077376-14.848 26.677248-29.855744 47.26784-14.790656 20.299776-55.365632 85.008384 68.716544 164.753408 4.501504 2.893824 28.596224 23.709696-13.254656 13.90592-6.5536-1.538048-19.308544-3.567616-45.125632-18.235392-6.350848-3.60448-21.487616-8.245248-14.198784 1.998848 14.608384 20.523008 59.256832 41.039872 122.959872 44.86144 20.5312 0.538624 78.559232 23.146496 117.467136 60.88704-0.223232-0.096256-0.458752-0.217088-0.677888-0.313344-24.408064-8.966144-33.396736 0-33.396736 0-7.084032 6.187008 9.631744 16.007168 19.90656 37.138432 14.903296 27.154432 37.971968 26.748928 42.766336 26.34752 0.485376 1.837056 1.08544 3.56352 1.824768 5.134336-1.601536 4.49536-2.79552 9.641984-3.033088 15.255552-0.823296 19.712-12.986368 24.09472-21.215232 28.483584 0 0 9.291776 10.942464 19.163136 7.008256 0 0-6.58432 19.279872-23.447552 26.288128 0 0 5.761024 7.450624 15.630336 2.197504 0 0-25.317376 30.54592-38.248448 49.199104l-17.197056 6.991872 0.02048 0.02048h-0.090112v54.827008h68.345856c26.832896 24.150016 58.898432 48.285696 79.919104 48.285696 21.010432 0 53.0944-24.13568 79.925248-48.285696h60.755968v-54.827008h-0.090112l0.03072-0.02048-34.715648-14.112768c-13.518848-18.395136-33.148928-42.07616-33.148928-42.07616 9.869312 5.25312 15.634432-2.197504 15.634432-2.197504-16.867328-7.008256-23.443456-26.288128-23.443456-26.288128 9.873408 3.934208 19.161088-7.008256 19.161088-7.008256-8.22272-4.388864-20.393984-8.769536-21.223424-28.483584-0.227328-5.613568-1.429504-10.76224-3.03104-15.255552a57.61024 57.61024 0 0 0 1.869824-5.040128c7.39328 0.106496 27.379712-2.039808 40.771584-26.43968 10.272768-21.131264 26.990592-30.951424 19.90656-37.138432 0 0-8.413184-8.298496-30.930944-0.827392 38.89152-37.050368 95.9488-59.213824 116.273152-59.746304 63.698944-3.821568 108.353536-24.338432 122.959872-44.86144 7.286784-10.246144-7.84384-5.607424-14.194688-2.002944z m-363.55072 113.385472c-31.602688 52.824064 25.993216 27.07456 23.977984 62.875648-2.015232 35.786752-0.847872 56.035328 13.674496 64.083968 14.518272 8.042496 30.244864 6.83008 11.290624 10.452992-18.95424 3.622912-22.992896-12.470272-28.637184 13.277184-5.648384 25.74336 43.968512 18.092032 33.878016 25.33376-10.080256 7.237632-28.637184 2.410496-38.715392 0-10.0864-2.420736-6.457344-7.643136-11.290624-20.105216-4.847616-12.470272-20.168704-21.31968-20.168704-21.31968 2.820096-9.250816-3.223552-28.555264 2.820096-23.730176 6.047744 4.831232 24.608768 12.873728 24.199168 10.463232-0.405504-2.420736-3.227648-2.019328-7.65952-10.463232-4.442112-8.448-11.972608-14.342144-17.885184-20.238336-5.916672-5.902336 6.987776-13.944832 2.686976-24.131584-4.3008-10.1888-16.674816-10.1888-16.674816-10.1888-11.8272-46.114816 28.504064-56.30976 28.504064-56.30976z m178.429952 207.372288v36.308992h-5.574656v-7.927808h-5.885952v7.927808h-11.001856v-4.739072h-5.885952v4.739072h-10.999808v-4.739072h-5.892096v4.739072h-10.995712v-4.739072h-5.892096v4.739072h-10.995712v-4.739072h-5.896192v4.739072h-10.995712v-7.927808h-5.881856v7.927808h-11.010048v-4.739072h-5.881856v4.739072h-11.005952v-4.739072h-5.881856v4.739072h-11.010048v-4.739072h-5.881856v4.739072h-11.010048v-4.739072h-5.881856v4.739072h-11.005952v-7.927808h-5.881856v7.927808h-11.010048v-4.739072h-5.885952v4.739072h-11.001856v-4.739072h-5.885952v4.739072h-11.001856v-4.739072h-5.885952v4.739072h-11.005952v-4.739072h-5.885952v4.739072h-11.005952v-7.927808h-5.881856v7.927808h-5.574656v-36.308992h270.374912z" fill="" p-id="9463"></path></svg>