<?xml version="1.0" standalone="no"?><!DOCTYPE svg PUBLIC "-//W3C//DTD SVG 1.1//EN" "http://www.w3.org/Graphics/SVG/1.1/DTD/svg11.dtd"><svg t="1704104733687" class="icon" viewBox="0 0 1024 1024" version="1.1" xmlns="http://www.w3.org/2000/svg" p-id="7336" xmlns:xlink="http://www.w3.org/1999/xlink" width="16" height="16"><path d="M499.17292344 120.78153875C502.41476937 111.71138469 495.73723062 102.15384594 486.248 102.15384594c-5.68246125 0-10.76861531 3.48369187-12.82707656 8.87261531-8.81538469 23.12492344-29.85230813 91.62461531-24.14215407 205.28123062 8.54215406-1.56923062 17.15076937-2.90769188 25.89969188-3.83076843-3.096-53.23569188-0.25476938-123.83076937 23.99446219-191.69538469" p-id="7337"></path><path d="M724.40923063 47.74215406c0.50584594-8.47753875-6.33230812-15.648-14.85046125-15.648-7.83138469 0-14.31323062 6-14.8190775 13.80553781-2.91692344 44.87815406-17.11384594 188.77846125-81.52246125 278.3630775a351.27138469 351.27138469 0 0 1 34.47323062 12.27323063c10.77046125-15.52061531 65.52-102.79753875 76.71876938-288.79384594" p-id="7338"></path><path d="M224.88615406 355.71753875C218.456 350.01846125 208.30953875 354.76492344 208.30953875 363.40307656c0 3.45969188 1.70584594 6.64246125 4.60430719 8.5070775 8.76738469 5.63261531 29.59384594 18.28615406 58.4270775 31.16676938A358.91630813 358.91630813 0 0 1 284.00184594 391.84123063c-20.25415406-8.17846125-40.57846125-19.68184594-59.11569188-36.12369188M474.39569187 312.67076938c2.66030812 44.57169187 9.61476937 76.89784594 11.46092344 84.89353875 0.26953875 1.15384594 1.35138469 1.89415406 2.53292344 1.81476843a157.98830813 157.98830813 0 0 0 19.76861531-2.46461531c25.49907656-4.84984594 47.51076938-15.77353875 66.53353781-30.92676937a177.11630812 177.11630812 0 0 0 6.98215407-5.87630719c11.424-10.11507656 21.696-21.77723063 30.94338468-34.56369281A355.05969187 355.05969187 0 0 0 511.14707656 310.76923063c-6.24738469 0-12.456 0.15692344-18.61476844 0.48369281-0.33784594 0.01846125-0.66461531 0.05907656-0.99323156 0.07753781-5.76 0.31569187-11.47384594 0.73846125-17.14523062 1.3310775l-0.23815407 0.02953781c0.07015406-0.00923063 0.15876937-0.00923063 0.24-0.01846125" p-id="7339"></path><path d="M285.90338469 393.63938469c53.15815406 21.43384594 105.78830813 19.39938469 124.86092344 17.65661531 2.33723063-0.22153875 2.88369187-3.33784594 0.83446125-4.48984594-28.344-15.75323063-51.28615406-33.34892344-69.86030813-51.81784594 1.92-1.07261531 3.82153875-2.14523062 5.75076938-3.18646218a380.60861531 380.60861531 0 0 1 13.06153875-6.63507657c1.78153875-0.85107656 3.58153875-1.66153875 5.38338468-2.48492343 36.60184594 38.79138469 76.73538469 53.17107656 88.62461532 56.75076937 1.67076938 0.50953875 3.20307656-0.96369187 2.95384593-2.69538468-4.21661531-29.08246125-6.68307656-55.92-7.94769187-80.72123063-7.93846125 1.44369188-15.75876937 3.20676937-23.50153875 5.18030812-2.53476937 0.63138469-5.00307656 1.41415406-7.51015406 2.11569188-5.17292344 1.44184594-10.33661531 2.91692344-15.40984594 4.58953875-2.93538469 0.96-5.82092344 2.03446125-8.71569281 3.06461531a347.87076938 347.87076938 0 0 0-13.52123063 5.13230719 303.91384594 303.91384594 0 0 0-9.06461531 3.84738469c-2.00861531 0.87323063-4.07815406 1.65415406-6.07753781 2.56615406-35.736-37.95876937-68.06030813-99.25846125-67.29415407-196.752 0.07015406-8.78769188-7.09292344-15.91384594-15.80861531-15.91384594a15.79569188 15.79569188 0 0 0-15.72923062 14.09907657c-3.85107656 35.47569188-5.28369188 131.29476937 74.62707656 210.87323062-2.30769188 1.29230813-4.52676937 2.69538469-6.79384594 4.01723063-1.41415406 0.83076938-2.82646125 1.65415406-4.22953875 2.50523156-6.35815406 3.86769187-12.61661531 7.88676938-18.71446125 12.13661531-0.61661531 0.43015406-1.21292344 0.90092344-1.83138469 1.34215313a375.75507656 375.75507656 0 0 0-15.99692343 12.04430812c-1.46215406 1.17415406-2.91507656 2.34461531-4.368 3.53907656-1.29230813 1.06153875-2.64553875 2.07323062-3.92861532 3.15692344a352.18523062 352.18523062 0 0 0-12.76615406 11.35384594c4.19076938-3.91015406 8.59753875-7.57661531 12.97476938-11.27446125" p-id="7340"></path><path d="M861.43630812 607.92061531C842.53353875 484.35753875 759.94584594 381.84615406 648.31630813 335.04430813c-1.19446125 1.728-1.872 2.616-1.87200001 2.616-124.12615406 145.14092344-286.42523062 103.63753875-374.52923156 64.3809225C202.16923063 466.76184594 158.45969187 559.27815406 158.45969187 662.05907656c0 91.05230812 34.28861531 174.048 90.60553876 236.81169282 11.92061531-13.056 26.68061531-23.32615406 43.4030775-29.5550775 27.66461531-10.29046125 57.54092344-12.98584594 78.33415312-13.37538375 32.29661531-0.61846125 60.12184594-20.39261531 86.42215406-39.16615407 79.13353875-56.46646125 69.71261531-144.99323062 69.71261532-169.68738468 0-29.94461531-19.91815406-49.90707656-99.5889225-29.94461532-79.67076937 19.96430813-69.71076937 0-69.71076938 0 49.79446125-9.98030813 39.83446125-19.96246125 39.83446125-19.96246218-9.95815406-19.96246125-39.83446125 9.98215406-39.83446125 9.98215406-25.50461531 0-26.51076938-20.47384594-23.94092344-35.19507656 1.48246125-8.47384594 8.04553875-15.08307656 16.43076938-16.91076938 25.67446125-5.568 84.10338469-23.86338469 107.09723062-77.65476937 29.87815406-69.87138469 99.58892344-39.92676937 99.58892344-39.92676938 54.10707656-54.22892344 90.05723063-68.45169187 110.07507656-71.1969225 10.24615406-1.41784594 19.05230813 7.43630813 17.71753875 17.71753781-14.352 110.76369187-78 83.424-78 83.424-9.95630813 0-9.95630813 9.98215406-9.95630812 9.98215407 86.27261531 194.56061531 63.55569188 409.86092344 44.24676937 514.59692343 131.48676937-51.64430813 224.64-179.84676938 224.64-329.9390775 0-18.40615406-1.40307656-36.48184594-4.10215406-54.13846125" p-id="7341"></path><path d="M575.69415406 427.07692344c109.23692344-57.24553875 99.30461531-28.62276938 99.30461532-28.62276938C694.86338469 350.74953875 575.69415406 427.07692344 575.69415406 427.07692344" p-id="7342"></path></svg>